<svg width="10" height="10" viewBox="0 0 10 10" fill="none" xmlns="http://www.w3.org/2000/svg">
<path fill-rule="evenodd" clip-rule="evenodd" d="M0 4.858C0 2.1793 2.1793 0 4.858 0C7.5367 0 9.716 2.1793 9.716 4.858C9.716 7.5367 7.5367 9.716 4.858 9.716C2.1793 9.716 0 7.5367 0 4.858ZM1.0336 4.858C1.0336 6.9668 2.7493 8.6823 4.858 8.6823C6.9667 8.6823 8.6824 6.9668 8.6824 4.858C8.6824 2.7492 6.9667 1.0337 4.858 1.0337C2.7493 1.0337 1.0336 2.7492 1.0336 4.858Z" fill="black"/>
<path d="M6.64531 5.37255H4.70939V3.31373C4.70939 3.14047 4.55057 3 4.35469 3C4.15881 3 4 3.14047 4 3.31373V5.68627C4 5.85953 4.15881 6 4.35469 6H6.64531C6.84119 6 7 5.85953 7 5.68627C7 5.51302 6.84119 5.37255 6.64531 5.37255Z" fill="black"/>
</svg>
