<svg width="16" height="18" viewBox="0 0 16 18" fill="none" xmlns="http://www.w3.org/2000/svg">
<path fill-rule="evenodd" clip-rule="evenodd" d="M10.9396 15.1402H14.5999C15.372 15.1402 16 14.4799 16 13.6683C16 13.2375 15.8216 12.8297 15.5103 12.5504C15.4911 12.5327 15.4703 12.5167 15.4488 12.5016C14.2728 11.4232 13.6 9.87228 13.6 8.2345V7.31781C13.6 6.96958 13.3312 6.68697 13 6.68697C12.6688 6.68697 12.4 6.96958 12.4 7.31781V8.2345C12.4 10.2667 13.2464 12.1886 14.7224 13.5092C14.7254 13.5117 14.7282 13.5142 14.7311 13.5166C14.7397 13.5239 14.7478 13.5309 14.7568 13.5378C14.7792 13.5665 14.8 13.6093 14.8 13.6683C14.8 13.7825 14.7087 13.8785 14.5999 13.8785H1.39995C1.29126 13.8785 1.2 13.7825 1.2 13.6683C1.2 13.6102 1.2208 13.5665 1.24233 13.5378C1.25296 13.5302 1.2619 13.5226 1.27145 13.5144C1.27347 13.5127 1.27553 13.5109 1.27763 13.5092C2.75273 12.1896 3.59999 10.2667 3.59999 8.2345V5.88779C3.59999 3.33671 5.57445 1.26168 7.99993 1.26168C8.01187 1.26168 8.02407 1.26156 8.03643 1.26144C8.08953 1.26091 8.1456 1.26036 8.19753 1.26923C8.51833 1.32652 8.83357 1.09427 8.88791 0.751125C8.9424 0.407982 8.72151 0.0823974 8.39441 0.0252583C8.26638 0.00246422 8.12795 0 7.99993 0C4.91278 0 2.39999 2.64118 2.39999 5.88779V8.2345C2.39999 9.87136 1.72792 11.4215 0.553563 12.499C0.531151 12.5142 0.509618 12.531 0.489549 12.5495C0.178417 12.8297 0 13.2375 0 13.6683C0 14.4799 0.627977 15.1402 1.39995 15.1402H5.06023C5.33905 16.5783 6.55173 17.6635 7.99993 17.6635C9.44826 17.6635 10.6608 16.5783 10.9396 15.1402ZM9.69711 15.1402H6.30275C6.55047 15.8747 7.21805 16.4019 7.99993 16.4019C8.78181 16.4019 9.44939 15.8747 9.69711 15.1402Z" fill="#110E47"/>
</svg>
